<svg xmlns="http://www.w3.org/2000/svg" aria-hidden="true" style="position:absolute;width:0;height:0;overflow:hidden">
  <defs>
  <!-- x -->
    <symbol id="icon-x" viewBox="0 0 32 32">
      <path stroke-linecap="round" stroke-linejoin="round" stroke-width="1.733" d="M24 8 8 24M8 8l16 16"/>
    </symbol>
    <!-- icon -->
    <symbol id="header-icon" viewBox="0 0 28 32">
      <path d="M-8.696-9.143h44.348v44.8H-8.696v-44.8z"/>
    </symbol>
    <symbol id="header-icon-mob" viewBox="0 0 28 32">
      <path d="M-8.889-9.142h45.333v44.8H-8.889v-44.8z"/>
    </symbol>
    <!-- menu -->
    <symbol id="menu-icon" viewBox="0 0 32 32">
      <path fill="#f6f5ef" style="fill: var(--color1, #f6f5ef)" d="M2.667 7.993c0-0.733 0.595-1.327 1.327-1.327h10.68c0.352 0 0.689 0.14 0.938 0.389s0.389 0.586 0.389 0.938c0 0.352-0.14 0.689-0.389 0.938s-0.586 0.389-0.938 0.389h-10.68c-0.352 0-0.689-0.14-0.938-0.389s-0.389-0.586-0.389-0.938zM2.667 16c0-0.733 0.595-1.327 1.327-1.327h24.013c0.352 0 0.689 0.14 0.938 0.389s0.389 0.586 0.389 0.938c0 0.352-0.14 0.689-0.389 0.938s-0.586 0.389-0.938 0.389h-24.013c-0.352 0-0.689-0.14-0.938-0.389s-0.389-0.586-0.389-0.938zM3.993 22.68c-0.352 0-0.689 0.14-0.938 0.389s-0.389 0.586-0.389 0.938c0 0.352 0.14 0.689 0.389 0.938s0.586 0.389 0.938 0.389h16.013c0.352 0 0.689-0.14 0.938-0.389s0.389-0.586 0.389-0.938c0-0.352-0.14-0.689-0.389-0.938s-0.586-0.389-0.938-0.389h-16.013z"></=>
    </symbol>
    <!-- underline -->
    <symbol id="icon-underline" viewBox="0 0 5360 32">
      <path fill="none" stroke="#f6f5ef" style="stroke: #f6f5ef" stroke-linejoin="miter" stroke-linecap="butt" stroke-miterlimit="4" stroke-width="16" d="M0 16h5360"></path>
    </symbol>
  </defs>
</svg>